<mxfile host="app.diagrams.net" modified="2020-08-06T10:18:09.346Z" agent="5.0 (Windows NT 10.0; Win64; x64) AppleWebKit/537.36 (KHTML, like Gecko) Chrome/84.0.4147.105 Safari/537.36" etag="x4o-yFOmsnYlvyoqbwlM" version="13.5.9" type="github">
  <diagram id="aF4y4N5zXCEjjetBABeC" name="第 1 页">
    <mxGraphModel dx="1185" dy="635" grid="1" gridSize="10" guides="1" tooltips="1" connect="1" arrows="1" fold="1" page="1" pageScale="1" pageWidth="827" pageHeight="1169" math="0" shadow="0">
      <root>
        <mxCell id="0" />
        <mxCell id="1" parent="0" />
        <mxCell id="VH_UtXKyB74IOCLLtNy2-3" value="" style="edgeStyle=orthogonalEdgeStyle;rounded=0;orthogonalLoop=1;jettySize=auto;html=1;" edge="1" parent="1" source="VH_UtXKyB74IOCLLtNy2-1" target="VH_UtXKyB74IOCLLtNy2-2">
          <mxGeometry relative="1" as="geometry" />
        </mxCell>
        <mxCell id="VH_UtXKyB74IOCLLtNy2-1" value="心跳线程扫描90s内未发送心跳的小区" style="rounded=0;whiteSpace=wrap;html=1;" vertex="1" parent="1">
          <mxGeometry x="120" y="100" width="120" height="40" as="geometry" />
        </mxCell>
        <mxCell id="VH_UtXKyB74IOCLLtNy2-6" style="edgeStyle=orthogonalEdgeStyle;rounded=0;orthogonalLoop=1;jettySize=auto;html=1;exitX=0.5;exitY=1;exitDx=0;exitDy=0;" edge="1" parent="1" source="VH_UtXKyB74IOCLLtNy2-2" target="VH_UtXKyB74IOCLLtNy2-5">
          <mxGeometry relative="1" as="geometry" />
        </mxCell>
        <mxCell id="VH_UtXKyB74IOCLLtNy2-2" value="将小区状态置为离线" style="rounded=0;whiteSpace=wrap;html=1;" vertex="1" parent="1">
          <mxGeometry x="120" y="170" width="120" height="30" as="geometry" />
        </mxCell>
        <mxCell id="VH_UtXKyB74IOCLLtNy2-12" style="edgeStyle=orthogonalEdgeStyle;rounded=0;orthogonalLoop=1;jettySize=auto;html=1;exitX=1;exitY=0.5;exitDx=0;exitDy=0;entryX=0;entryY=0.5;entryDx=0;entryDy=0;" edge="1" parent="1" source="VH_UtXKyB74IOCLLtNy2-4" target="VH_UtXKyB74IOCLLtNy2-8">
          <mxGeometry relative="1" as="geometry" />
        </mxCell>
        <mxCell id="VH_UtXKyB74IOCLLtNy2-4" value="将小区离线事件通过websocket推送给前端" style="rounded=0;whiteSpace=wrap;html=1;" vertex="1" parent="1">
          <mxGeometry x="120" y="450" width="120" height="40" as="geometry" />
        </mxCell>
        <mxCell id="VH_UtXKyB74IOCLLtNy2-10" style="edgeStyle=orthogonalEdgeStyle;rounded=0;orthogonalLoop=1;jettySize=auto;html=1;exitX=0.5;exitY=1;exitDx=0;exitDy=0;entryX=0.5;entryY=0;entryDx=0;entryDy=0;" edge="1" parent="1" source="VH_UtXKyB74IOCLLtNy2-5" target="VH_UtXKyB74IOCLLtNy2-7">
          <mxGeometry relative="1" as="geometry" />
        </mxCell>
        <mxCell id="VH_UtXKyB74IOCLLtNy2-5" value="修改该小区下所有充电桩的状态为离线" style="rounded=0;whiteSpace=wrap;html=1;" vertex="1" parent="1">
          <mxGeometry x="120" y="230" width="120" height="40" as="geometry" />
        </mxCell>
        <mxCell id="VH_UtXKyB74IOCLLtNy2-18" value="" style="edgeStyle=orthogonalEdgeStyle;rounded=0;orthogonalLoop=1;jettySize=auto;html=1;" edge="1" parent="1" source="VH_UtXKyB74IOCLLtNy2-7" target="VH_UtXKyB74IOCLLtNy2-16">
          <mxGeometry relative="1" as="geometry" />
        </mxCell>
        <mxCell id="VH_UtXKyB74IOCLLtNy2-7" value="将小区所有桩对应chargerRealTimeData 集合的文档重置" style="rounded=0;whiteSpace=wrap;html=1;" vertex="1" parent="1">
          <mxGeometry x="120" y="300" width="120" height="60" as="geometry" />
        </mxCell>
        <mxCell id="VH_UtXKyB74IOCLLtNy2-8" value="修改dashboard中的数据" style="rounded=0;whiteSpace=wrap;html=1;" vertex="1" parent="1">
          <mxGeometry x="280" y="450" width="120" height="40" as="geometry" />
        </mxCell>
        <mxCell id="VH_UtXKyB74IOCLLtNy2-9" value="server" style="text;html=1;strokeColor=none;fillColor=none;align=center;verticalAlign=middle;whiteSpace=wrap;rounded=0;" vertex="1" parent="1">
          <mxGeometry x="160" y="70" width="40" height="20" as="geometry" />
        </mxCell>
        <mxCell id="VH_UtXKyB74IOCLLtNy2-13" value="web" style="text;html=1;strokeColor=none;fillColor=none;align=center;verticalAlign=middle;whiteSpace=wrap;rounded=0;" vertex="1" parent="1">
          <mxGeometry x="320" y="420" width="40" height="20" as="geometry" />
        </mxCell>
        <mxCell id="VH_UtXKyB74IOCLLtNy2-19" value="" style="edgeStyle=orthogonalEdgeStyle;rounded=0;orthogonalLoop=1;jettySize=auto;html=1;" edge="1" parent="1" source="VH_UtXKyB74IOCLLtNy2-16" target="VH_UtXKyB74IOCLLtNy2-4">
          <mxGeometry relative="1" as="geometry" />
        </mxCell>
        <mxCell id="VH_UtXKyB74IOCLLtNy2-16" value="将小区" style="rounded=0;whiteSpace=wrap;html=1;" vertex="1" parent="1">
          <mxGeometry x="120" y="390" width="120" height="30" as="geometry" />
        </mxCell>
      </root>
    </mxGraphModel>
  </diagram>
</mxfile>
